<?xml version="1.0" encoding="utf-8"?>
<!-- Generator: Adobe Illustrator 22.1.0, SVG Export Plug-In . SVG Version: 6.00 Build 0)  -->
<svg version="1.1" id="Layer_1" xmlns="http://www.w3.org/2000/svg" xmlns:xlink="http://www.w3.org/1999/xlink" x="0px" y="0px"
	 viewBox="0 0 176 176" style="enable-background:new 0 0 176 176;" xml:space="preserve">
<style type="text/css">
	.st0{fill:#BFD6D3;}
</style>
<g>
	<path class="st0" d="M101.6,128.5L74.8,175C32.4,168.6,0,132.1,0,88c0-16.5,4.5-31.9,12.4-45.1L50.8,109l0.2,0.4
		c7.4,12.7,21.2,21.3,37,21.3C92.8,130.7,97.3,130,101.6,128.5z"/>
	<path class="st0" d="M120,88c0,5.8-1.5,11.3-4.3,16l-0.4,0.6C109.7,113.8,99.6,120,88,120c-11.8,0-22.1-6.4-27.7-15.9
		c-0.2-0.2-0.3-0.5-0.4-0.8l0,0C57.4,98.7,56,93.5,56,88c0-17.7,14.3-32,32-32S120,70.3,120,88z"/>
	<path class="st0" d="M164.9,45.3H88c-20.7,0-38,14.7-41.9,34.3l-27-46.4C35.3,13,60.1,0,88,0C121.1,0,149.9,18.3,164.9,45.3z"/>
	<path class="st0" d="M176,88c0,48.6-39.4,88-88,88c-0.5,0-1,0-1.4,0l38-65.8l0.5-0.8l0,0c3.6-6.3,5.7-13.5,5.7-21.3
		c0-12.7-5.6-24.2-14.4-32H170C173.9,65.9,176,76.7,176,88z"/>
</g>
</svg>
